<mxfile host="app.diagrams.net" agent="Mozilla/5.0 (Windows NT 10.0; Win64; x64) AppleWebKit/537.36 (KHTML, like Gecko) Chrome/139.0.0.0 Safari/537.36" version="28.1.0">
  <diagram name="Page-1" id="p7NKGWyZLTB-9_XhmfBA">
    <mxGraphModel dx="1426" dy="777" grid="1" gridSize="10" guides="1" tooltips="1" connect="1" arrows="1" fold="1" page="1" pageScale="1" pageWidth="850" pageHeight="1100" math="0" shadow="0">
      <root>
        <mxCell id="0" />
        <mxCell id="1" parent="0" />
        <mxCell id="bFOI0pjpFYwL-A5WiE7Q-4" value="" style="edgeStyle=none;curved=1;rounded=0;orthogonalLoop=1;jettySize=auto;html=1;fontSize=12;startSize=8;endSize=8;" parent="1" source="bFOI0pjpFYwL-A5WiE7Q-2" target="bFOI0pjpFYwL-A5WiE7Q-3" edge="1">
          <mxGeometry relative="1" as="geometry" />
        </mxCell>
        <mxCell id="bFOI0pjpFYwL-A5WiE7Q-2" value="Start" style="ellipse;whiteSpace=wrap;html=1;" parent="1" vertex="1">
          <mxGeometry x="260" y="20" width="120" height="40" as="geometry" />
        </mxCell>
        <mxCell id="bFOI0pjpFYwL-A5WiE7Q-6" value="" style="edgeStyle=none;curved=1;rounded=0;orthogonalLoop=1;jettySize=auto;html=1;fontSize=12;startSize=8;endSize=8;" parent="1" source="bFOI0pjpFYwL-A5WiE7Q-3" target="bFOI0pjpFYwL-A5WiE7Q-5" edge="1">
          <mxGeometry relative="1" as="geometry" />
        </mxCell>
        <mxCell id="bFOI0pjpFYwL-A5WiE7Q-3" value="Check Real Time" style="whiteSpace=wrap;html=1;" parent="1" vertex="1">
          <mxGeometry x="260" y="90" width="120" height="40" as="geometry" />
        </mxCell>
        <mxCell id="bFOI0pjpFYwL-A5WiE7Q-8" value="" style="edgeStyle=none;curved=1;rounded=0;orthogonalLoop=1;jettySize=auto;html=1;fontSize=12;startSize=8;endSize=8;" parent="1" source="bFOI0pjpFYwL-A5WiE7Q-5" target="bFOI0pjpFYwL-A5WiE7Q-7" edge="1">
          <mxGeometry relative="1" as="geometry" />
        </mxCell>
        <mxCell id="bFOI0pjpFYwL-A5WiE7Q-12" value="" style="edgeStyle=none;curved=1;rounded=0;orthogonalLoop=1;jettySize=auto;html=1;fontSize=12;startSize=8;endSize=8;" parent="1" source="bFOI0pjpFYwL-A5WiE7Q-5" target="bFOI0pjpFYwL-A5WiE7Q-11" edge="1">
          <mxGeometry relative="1" as="geometry" />
        </mxCell>
        <mxCell id="bFOI0pjpFYwL-A5WiE7Q-5" value="Feeding Time?" style="rhombus;whiteSpace=wrap;html=1;" parent="1" vertex="1">
          <mxGeometry x="280" y="180" width="80" height="80" as="geometry" />
        </mxCell>
        <mxCell id="bFOI0pjpFYwL-A5WiE7Q-10" value="" style="edgeStyle=none;curved=1;rounded=0;orthogonalLoop=1;jettySize=auto;html=1;fontSize=12;startSize=8;endSize=8;" parent="1" source="bFOI0pjpFYwL-A5WiE7Q-7" target="bFOI0pjpFYwL-A5WiE7Q-9" edge="1">
          <mxGeometry relative="1" as="geometry" />
        </mxCell>
        <mxCell id="bFOI0pjpFYwL-A5WiE7Q-7" value="No" style="whiteSpace=wrap;html=1;" parent="1" vertex="1">
          <mxGeometry x="422.5" y="190" width="100" height="60" as="geometry" />
        </mxCell>
        <mxCell id="bFOI0pjpFYwL-A5WiE7Q-9" value="Do not dispense food. Wait for the scheduled time" style="whiteSpace=wrap;html=1;" parent="1" vertex="1">
          <mxGeometry x="590" y="190" width="120" height="60" as="geometry" />
        </mxCell>
        <mxCell id="bFOI0pjpFYwL-A5WiE7Q-15" value="" style="edgeStyle=none;curved=1;rounded=0;orthogonalLoop=1;jettySize=auto;html=1;fontSize=12;startSize=8;endSize=8;" parent="1" source="bFOI0pjpFYwL-A5WiE7Q-11" target="bFOI0pjpFYwL-A5WiE7Q-14" edge="1">
          <mxGeometry relative="1" as="geometry" />
        </mxCell>
        <mxCell id="bFOI0pjpFYwL-A5WiE7Q-11" value="Yes" style="whiteSpace=wrap;html=1;" parent="1" vertex="1">
          <mxGeometry x="260" y="300" width="120" height="60" as="geometry" />
        </mxCell>
        <mxCell id="bFOI0pjpFYwL-A5WiE7Q-13" style="edgeStyle=none;curved=1;rounded=0;orthogonalLoop=1;jettySize=auto;html=1;exitX=1;exitY=1;exitDx=0;exitDy=0;fontSize=12;startSize=8;endSize=8;" parent="1" source="bFOI0pjpFYwL-A5WiE7Q-7" target="bFOI0pjpFYwL-A5WiE7Q-7" edge="1">
          <mxGeometry relative="1" as="geometry" />
        </mxCell>
        <mxCell id="bFOI0pjpFYwL-A5WiE7Q-17" value="" style="edgeStyle=none;curved=1;rounded=0;orthogonalLoop=1;jettySize=auto;html=1;fontSize=12;startSize=8;endSize=8;" parent="1" source="bFOI0pjpFYwL-A5WiE7Q-14" target="bFOI0pjpFYwL-A5WiE7Q-16" edge="1">
          <mxGeometry relative="1" as="geometry" />
        </mxCell>
        <mxCell id="bFOI0pjpFYwL-A5WiE7Q-14" value="Check food bin to ensure sufficient food is available" style="whiteSpace=wrap;html=1;" parent="1" vertex="1">
          <mxGeometry x="260" y="410" width="120" height="60" as="geometry" />
        </mxCell>
        <mxCell id="bFOI0pjpFYwL-A5WiE7Q-19" value="" style="edgeStyle=none;curved=1;rounded=0;orthogonalLoop=1;jettySize=auto;html=1;fontSize=12;startSize=8;endSize=8;" parent="1" source="bFOI0pjpFYwL-A5WiE7Q-16" target="bFOI0pjpFYwL-A5WiE7Q-18" edge="1">
          <mxGeometry relative="1" as="geometry" />
        </mxCell>
        <mxCell id="bFOI0pjpFYwL-A5WiE7Q-23" value="" style="edgeStyle=none;curved=1;rounded=0;orthogonalLoop=1;jettySize=auto;html=1;fontSize=12;startSize=8;endSize=8;" parent="1" source="bFOI0pjpFYwL-A5WiE7Q-16" target="bFOI0pjpFYwL-A5WiE7Q-22" edge="1">
          <mxGeometry relative="1" as="geometry" />
        </mxCell>
        <mxCell id="bFOI0pjpFYwL-A5WiE7Q-16" value="Is the food adequate enough for pets?" style="rhombus;whiteSpace=wrap;html=1;" parent="1" vertex="1">
          <mxGeometry x="245" y="510" width="150" height="120" as="geometry" />
        </mxCell>
        <mxCell id="bFOI0pjpFYwL-A5WiE7Q-21" value="" style="edgeStyle=none;curved=1;rounded=0;orthogonalLoop=1;jettySize=auto;html=1;fontSize=12;startSize=8;endSize=8;" parent="1" source="bFOI0pjpFYwL-A5WiE7Q-18" target="bFOI0pjpFYwL-A5WiE7Q-20" edge="1">
          <mxGeometry relative="1" as="geometry" />
        </mxCell>
        <mxCell id="bFOI0pjpFYwL-A5WiE7Q-18" value="No" style="whiteSpace=wrap;html=1;" parent="1" vertex="1">
          <mxGeometry x="425" y="545" width="95" height="50" as="geometry" />
        </mxCell>
        <mxCell id="bFOI0pjpFYwL-A5WiE7Q-20" value="Send alert to the shelter staff" style="whiteSpace=wrap;html=1;" parent="1" vertex="1">
          <mxGeometry x="560" y="540" width="120" height="60" as="geometry" />
        </mxCell>
        <mxCell id="bFOI0pjpFYwL-A5WiE7Q-25" value="" style="edgeStyle=none;curved=1;rounded=0;orthogonalLoop=1;jettySize=auto;html=1;fontSize=12;startSize=8;endSize=8;" parent="1" source="bFOI0pjpFYwL-A5WiE7Q-22" target="bFOI0pjpFYwL-A5WiE7Q-24" edge="1">
          <mxGeometry relative="1" as="geometry" />
        </mxCell>
        <mxCell id="bFOI0pjpFYwL-A5WiE7Q-22" value="Yes" style="whiteSpace=wrap;html=1;" parent="1" vertex="1">
          <mxGeometry x="260" y="670" width="120" height="60" as="geometry" />
        </mxCell>
        <mxCell id="bFOI0pjpFYwL-A5WiE7Q-27" value="" style="edgeStyle=none;curved=1;rounded=0;orthogonalLoop=1;jettySize=auto;html=1;fontSize=12;startSize=8;endSize=8;" parent="1" source="bFOI0pjpFYwL-A5WiE7Q-24" target="bFOI0pjpFYwL-A5WiE7Q-26" edge="1">
          <mxGeometry relative="1" as="geometry" />
        </mxCell>
        <mxCell id="bFOI0pjpFYwL-A5WiE7Q-24" value="Dispense food" style="whiteSpace=wrap;html=1;" parent="1" vertex="1">
          <mxGeometry x="260" y="780" width="120" height="60" as="geometry" />
        </mxCell>
        <mxCell id="bFOI0pjpFYwL-A5WiE7Q-29" value="" style="edgeStyle=none;curved=1;rounded=0;orthogonalLoop=1;jettySize=auto;html=1;fontSize=12;startSize=8;endSize=8;" parent="1" source="bFOI0pjpFYwL-A5WiE7Q-26" target="bFOI0pjpFYwL-A5WiE7Q-28" edge="1">
          <mxGeometry relative="1" as="geometry" />
        </mxCell>
        <mxCell id="bFOI0pjpFYwL-A5WiE7Q-33" value="" style="edgeStyle=none;curved=1;rounded=0;orthogonalLoop=1;jettySize=auto;html=1;fontSize=12;startSize=8;endSize=8;" parent="1" source="bFOI0pjpFYwL-A5WiE7Q-26" target="bFOI0pjpFYwL-A5WiE7Q-32" edge="1">
          <mxGeometry relative="1" as="geometry" />
        </mxCell>
        <mxCell id="bFOI0pjpFYwL-A5WiE7Q-26" value="Did the pets eat the food?" style="rhombus;whiteSpace=wrap;html=1;" parent="1" vertex="1">
          <mxGeometry x="255" y="880" width="130" height="110" as="geometry" />
        </mxCell>
        <mxCell id="bFOI0pjpFYwL-A5WiE7Q-31" value="" style="edgeStyle=none;curved=1;rounded=0;orthogonalLoop=1;jettySize=auto;html=1;fontSize=12;startSize=8;endSize=8;" parent="1" source="bFOI0pjpFYwL-A5WiE7Q-28" target="bFOI0pjpFYwL-A5WiE7Q-30" edge="1">
          <mxGeometry relative="1" as="geometry" />
        </mxCell>
        <mxCell id="bFOI0pjpFYwL-A5WiE7Q-28" value="No" style="whiteSpace=wrap;html=1;" parent="1" vertex="1">
          <mxGeometry x="425" y="905" width="95" height="45" as="geometry" />
        </mxCell>
        <mxCell id="bFOI0pjpFYwL-A5WiE7Q-39" value="" style="edgeStyle=none;curved=1;rounded=0;orthogonalLoop=1;jettySize=auto;html=1;fontSize=12;startSize=8;endSize=8;" parent="1" source="bFOI0pjpFYwL-A5WiE7Q-30" target="bFOI0pjpFYwL-A5WiE7Q-38" edge="1">
          <mxGeometry relative="1" as="geometry" />
        </mxCell>
        <mxCell id="bFOI0pjpFYwL-A5WiE7Q-30" value="Wait for 30 mins and check if the pets have eaten the food" style="whiteSpace=wrap;html=1;" parent="1" vertex="1">
          <mxGeometry x="570" y="897.5" width="120" height="60" as="geometry" />
        </mxCell>
        <mxCell id="bFOI0pjpFYwL-A5WiE7Q-35" value="" style="edgeStyle=none;curved=1;rounded=0;orthogonalLoop=1;jettySize=auto;html=1;fontSize=12;startSize=8;endSize=8;" parent="1" source="bFOI0pjpFYwL-A5WiE7Q-32" target="bFOI0pjpFYwL-A5WiE7Q-34" edge="1">
          <mxGeometry relative="1" as="geometry" />
        </mxCell>
        <mxCell id="bFOI0pjpFYwL-A5WiE7Q-32" value="Yes" style="whiteSpace=wrap;html=1;fillColor=#d5e8d4;strokeColor=#82b366;" parent="1" vertex="1">
          <mxGeometry x="265" y="1010" width="95" height="40" as="geometry" />
        </mxCell>
        <mxCell id="bFOI0pjpFYwL-A5WiE7Q-37" value="" style="edgeStyle=none;curved=1;rounded=0;orthogonalLoop=1;jettySize=auto;html=1;fontSize=12;startSize=8;endSize=8;" parent="1" source="bFOI0pjpFYwL-A5WiE7Q-34" target="bFOI0pjpFYwL-A5WiE7Q-36" edge="1">
          <mxGeometry relative="1" as="geometry" />
        </mxCell>
        <mxCell id="bFOI0pjpFYwL-A5WiE7Q-34" value="Notify the staff that the pets have eaten the food&amp;nbsp;" style="whiteSpace=wrap;html=1;" parent="1" vertex="1">
          <mxGeometry x="260" y="1090" width="105" height="60" as="geometry" />
        </mxCell>
        <mxCell id="bFOI0pjpFYwL-A5WiE7Q-36" value="End" style="ellipse;whiteSpace=wrap;html=1;" parent="1" vertex="1">
          <mxGeometry x="272.5" y="1200" width="80" height="50" as="geometry" />
        </mxCell>
        <mxCell id="bFOI0pjpFYwL-A5WiE7Q-41" value="" style="edgeStyle=none;curved=1;rounded=0;orthogonalLoop=1;jettySize=auto;html=1;fontSize=12;startSize=8;endSize=8;" parent="1" source="bFOI0pjpFYwL-A5WiE7Q-38" target="bFOI0pjpFYwL-A5WiE7Q-40" edge="1">
          <mxGeometry relative="1" as="geometry" />
        </mxCell>
        <mxCell id="bFOI0pjpFYwL-A5WiE7Q-38" value="Pets have still not eaten food." style="whiteSpace=wrap;html=1;" parent="1" vertex="1">
          <mxGeometry x="740" y="897.5" width="120" height="60" as="geometry" />
        </mxCell>
        <mxCell id="bFOI0pjpFYwL-A5WiE7Q-40" value="Send alert to the shelter staff" style="whiteSpace=wrap;html=1;fillColor=#f8cecc;strokeColor=#b85450;" parent="1" vertex="1">
          <mxGeometry x="910" y="897.5" width="120" height="60" as="geometry" />
        </mxCell>
      </root>
    </mxGraphModel>
  </diagram>
</mxfile>
